<svg width="150" height="120" viewBox="0 0 150 120" fill="none" xmlns="http://www.w3.org/2000/svg">
<g clip-path="url(#clip0)">
<path d="M91.0457 0.759615L0.0947876 0.760391L32.9854 118.479H91.0457H91.2662V118.463C123.684 118.342 149.901 92.0296 149.905 59.6114C149.898 27.1944 123.683 0.884453 91.2662 0.763071V0.751434L91.0457 0.759615ZM88.111 15.9636C91.7597 15.9767 95.2953 16.4558 98.7183 17.4008C102.141 18.3459 105.382 19.7166 108.439 21.5127C111.485 23.2717 114.273 25.3965 116.803 27.8884C119.323 30.3434 121.501 33.1482 123.336 36.3016C125.175 39.7143 126.741 43.2996 127.602 46.4508C128.583 50.1106 129.047 53.7698 128.997 57.4283C128.974 61.0401 128.49 64.5575 127.545 67.9806C126.59 71.3666 125.239 74.6018 123.49 77.6855C121.731 80.7322 119.606 83.5213 117.114 86.0514C114.622 88.5813 111.803 90.7819 108.66 92.6543C105.544 94.4801 102.156 95.8829 98.4961 96.8635L63.1488 106.335L50.7107 59.7318L70.9704 71.4267L74.9091 86.1262L94.2319 80.9493C97.522 80.0674 100.445 78.6301 103.002 76.6374C105.585 74.598 107.661 72.2192 109.231 69.5004C110.828 66.735 111.85 63.7467 112.297 60.5362C112.772 57.2789 112.568 54.0053 111.686 50.7151C110.804 47.4249 109.35 44.5067 107.32 41.9601C105.328 39.4034 102.953 37.3456 100.198 35.7858C97.4692 34.1791 94.476 33.1386 91.2188 32.6642C87.9985 32.1799 84.7439 32.3785 81.4536 33.2602L62.1309 38.4372L46.1588 42.717L38.8298 44.6803L18.6511 33.0302L41.842 26.8164L77.1894 17.3449C80.8492 16.3642 84.4894 15.9038 88.111 15.9636V15.9636Z" fill="white"/>
</g>
<defs>
<clipPath id="clip0">
<rect width="150" height="119.231" fill="white"/>
</clipPath>
</defs>
</svg>
